<mxfile host="app.diagrams.net" modified="2024-01-16T09:02:16.326Z" agent="Mozilla/5.0 (Windows NT 10.0; Win64; x64) AppleWebKit/537.36 (KHTML, like Gecko) Chrome/120.0.0.0 Safari/537.36 Edg/120.0.0.0" version="22.1.18" etag="rkTmu6ma4Ae9CW3U0BIO" type="github">
  <diagram name="Page-1" id="Bq4Yvd49-FmTi4xq2oYk">
    <mxGraphModel>
      <root>
        <mxCell id="0" />
        <mxCell id="1" parent="0" />
      </root>
    </mxGraphModel>
  </diagram>
</mxfile>
